<mxfile host="app.diagrams.net" modified="2024-03-05T20:47:08.459Z" agent="Mozilla/5.0 (Windows NT 10.0; Win64; x64) AppleWebKit/537.36 (KHTML, like Gecko) Chrome/122.0.0.0 Safari/537.36" etag="WD0IShpFEiUXrppO7auo" version="24.0.1" type="github">
  <diagram id="SXgX17sldJI9QkPeDldp" name="Page-1">
    <mxGraphModel dx="412" dy="315" grid="1" gridSize="10" guides="1" tooltips="1" connect="1" arrows="1" fold="1" page="1" pageScale="1" pageWidth="827" pageHeight="1169" math="0" shadow="0">
      <root>
        <mxCell id="kKs_Z4YsZ-Q-qFJGQyTJ-0" />
        <mxCell id="kKs_Z4YsZ-Q-qFJGQyTJ-1" parent="kKs_Z4YsZ-Q-qFJGQyTJ-0" />
        <mxCell id="kKs_Z4YsZ-Q-qFJGQyTJ-2" value="" style="rounded=0;whiteSpace=wrap;connectable=0;fillOpacity=10;fillColor=#dae8fc;strokeColor=#6c8ebf;labelPosition=center;verticalLabelPosition=bottom;align=center;verticalAlign=top;textDirection=rtl;" parent="kKs_Z4YsZ-Q-qFJGQyTJ-1" vertex="1">
          <mxGeometry x="10" y="450" width="810" height="610" as="geometry" />
        </mxCell>
        <mxCell id="kKs_Z4YsZ-Q-qFJGQyTJ-3" value="" style="rounded=0;whiteSpace=wrap;connectable=0;fillOpacity=10;fillColor=#ffe6cc;strokeColor=#d79b00;" parent="kKs_Z4YsZ-Q-qFJGQyTJ-1" vertex="1">
          <mxGeometry x="10" y="25" width="810" height="380" as="geometry" />
        </mxCell>
        <mxCell id="kKs_Z4YsZ-Q-qFJGQyTJ-4" value="" style="edgeStyle=orthogonalEdgeStyle;shape=link;rounded=0;orthogonalLoop=1;jettySize=auto;" parent="kKs_Z4YsZ-Q-qFJGQyTJ-1" source="kKs_Z4YsZ-Q-qFJGQyTJ-6" target="kKs_Z4YsZ-Q-qFJGQyTJ-8" edge="1">
          <mxGeometry relative="1" as="geometry" />
        </mxCell>
        <mxCell id="kKs_Z4YsZ-Q-qFJGQyTJ-5" value="" style="edgeStyle=none;shape=link;rounded=0;orthogonalLoop=1;jettySize=auto;" parent="kKs_Z4YsZ-Q-qFJGQyTJ-1" source="kKs_Z4YsZ-Q-qFJGQyTJ-21" edge="1">
          <mxGeometry relative="1" as="geometry">
            <mxPoint x="375.0799999999999" y="340" as="targetPoint" />
          </mxGeometry>
        </mxCell>
        <mxCell id="kKs_Z4YsZ-Q-qFJGQyTJ-6" value="" style="fontColor=#0066CC;verticalAlign=top;verticalLabelPosition=bottom;labelPosition=center;align=center;outlineConnect=0;fillColor=#CCCCCC;strokeColor=#6881B3;gradientColor=none;gradientDirection=north;strokeWidth=2;shape=mxgraph.networks.firewall;" parent="kKs_Z4YsZ-Q-qFJGQyTJ-1" vertex="1">
          <mxGeometry x="345.08" y="420" width="60" height="50" as="geometry" />
        </mxCell>
        <mxCell id="kKs_Z4YsZ-Q-qFJGQyTJ-7" value="" style="edgeStyle=orthogonalEdgeStyle;shape=link;rounded=0;orthogonalLoop=1;jettySize=auto;exitX=0.5;exitY=1;exitDx=0;exitDy=0;exitPerimeter=0;entryX=0.5;entryY=0;entryDx=0;entryDy=0;entryPerimeter=0;" parent="kKs_Z4YsZ-Q-qFJGQyTJ-1" source="kKs_Z4YsZ-Q-qFJGQyTJ-8" target="kKs_Z4YsZ-Q-qFJGQyTJ-13" edge="1">
          <mxGeometry relative="1" as="geometry" />
        </mxCell>
        <mxCell id="wiULPba4sbTOzCL7PzTo-35" style="edgeStyle=orthogonalEdgeStyle;shape=link;rounded=0;orthogonalLoop=1;jettySize=auto;html=1;fontColor=#000000;" parent="kKs_Z4YsZ-Q-qFJGQyTJ-1" source="kKs_Z4YsZ-Q-qFJGQyTJ-8" target="kKs_Z4YsZ-Q-qFJGQyTJ-63" edge="1">
          <mxGeometry relative="1" as="geometry">
            <Array as="points">
              <mxPoint x="375" y="760" />
              <mxPoint x="285" y="760" />
            </Array>
          </mxGeometry>
        </mxCell>
        <mxCell id="kKs_Z4YsZ-Q-qFJGQyTJ-8" value="" style="fontColor=#0066CC;verticalAlign=top;verticalLabelPosition=bottom;labelPosition=center;align=center;outlineConnect=0;fillColor=#CCCCCC;strokeColor=#6881B3;gradientColor=none;gradientDirection=north;strokeWidth=2;shape=mxgraph.networks.router;" parent="kKs_Z4YsZ-Q-qFJGQyTJ-1" vertex="1">
          <mxGeometry x="325.08" y="520" width="100" height="30" as="geometry" />
        </mxCell>
        <mxCell id="kKs_Z4YsZ-Q-qFJGQyTJ-12" value="" style="edgeStyle=orthogonalEdgeStyle;shape=link;rounded=0;orthogonalLoop=1;jettySize=auto;exitX=0.5;exitY=1;exitDx=0;exitDy=0;exitPerimeter=0;width=4;" parent="kKs_Z4YsZ-Q-qFJGQyTJ-1" source="kKs_Z4YsZ-Q-qFJGQyTJ-13" target="wiULPba4sbTOzCL7PzTo-0" edge="1">
          <mxGeometry relative="1" as="geometry">
            <Array as="points">
              <mxPoint x="172" y="660" />
              <mxPoint x="45" y="660" />
            </Array>
            <mxPoint x="45.07999999999993" y="683.1399999999999" as="targetPoint" />
          </mxGeometry>
        </mxCell>
        <mxCell id="wiULPba4sbTOzCL7PzTo-38" value="&lt;span style=&quot;background-color: rgb(248 , 249 , 250)&quot;&gt;ETH0 Port&lt;/span&gt;" style="text;html=1;align=center;verticalAlign=bottom;resizable=0;points=[];labelBackgroundColor=#ffffff;fontColor=#000000;labelPosition=center;verticalLabelPosition=top;" parent="kKs_Z4YsZ-Q-qFJGQyTJ-12" vertex="1" connectable="0">
          <mxGeometry x="0.269" y="-1" relative="1" as="geometry">
            <mxPoint as="offset" />
          </mxGeometry>
        </mxCell>
        <mxCell id="wiULPba4sbTOzCL7PzTo-28" style="edgeStyle=orthogonalEdgeStyle;shape=link;rounded=0;orthogonalLoop=1;jettySize=auto;html=1;" parent="kKs_Z4YsZ-Q-qFJGQyTJ-1" source="kKs_Z4YsZ-Q-qFJGQyTJ-13" target="wiULPba4sbTOzCL7PzTo-22" edge="1">
          <mxGeometry relative="1" as="geometry">
            <Array as="points">
              <mxPoint x="172" y="660" />
              <mxPoint x="140" y="660" />
            </Array>
          </mxGeometry>
        </mxCell>
        <mxCell id="wiULPba4sbTOzCL7PzTo-29" style="edgeStyle=orthogonalEdgeStyle;shape=link;rounded=0;orthogonalLoop=1;jettySize=auto;html=1;" parent="kKs_Z4YsZ-Q-qFJGQyTJ-1" source="kKs_Z4YsZ-Q-qFJGQyTJ-13" target="wiULPba4sbTOzCL7PzTo-23" edge="1">
          <mxGeometry relative="1" as="geometry">
            <Array as="points">
              <mxPoint x="172" y="660" />
              <mxPoint x="220" y="660" />
            </Array>
          </mxGeometry>
        </mxCell>
        <mxCell id="wiULPba4sbTOzCL7PzTo-30" style="edgeStyle=orthogonalEdgeStyle;shape=link;rounded=0;orthogonalLoop=1;jettySize=auto;html=1;" parent="kKs_Z4YsZ-Q-qFJGQyTJ-1" source="kKs_Z4YsZ-Q-qFJGQyTJ-13" target="wiULPba4sbTOzCL7PzTo-24" edge="1">
          <mxGeometry relative="1" as="geometry" />
        </mxCell>
        <mxCell id="kKs_Z4YsZ-Q-qFJGQyTJ-13" value="" style="fontColor=#0066CC;verticalAlign=top;verticalLabelPosition=bottom;labelPosition=center;align=center;outlineConnect=0;fillColor=#CCCCCC;strokeColor=#6881B3;gradientColor=none;gradientDirection=north;strokeWidth=2;shape=mxgraph.networks.hub;" parent="kKs_Z4YsZ-Q-qFJGQyTJ-1" vertex="1">
          <mxGeometry x="122" y="600" width="100" height="30" as="geometry" />
        </mxCell>
        <mxCell id="kKs_Z4YsZ-Q-qFJGQyTJ-17" value="" style="edgeStyle=orthogonalEdgeStyle;shape=link;rounded=0;orthogonalLoop=1;jettySize=auto;exitX=0.5;exitY=1;exitDx=0;exitDy=0;" parent="kKs_Z4YsZ-Q-qFJGQyTJ-1" source="wiULPba4sbTOzCL7PzTo-0" target="kKs_Z4YsZ-Q-qFJGQyTJ-53" edge="1">
          <mxGeometry relative="1" as="geometry">
            <Array as="points">
              <mxPoint x="45" y="1040" />
              <mxPoint x="355" y="1040" />
            </Array>
            <mxPoint x="45.07999999999993" y="726.8599999999997" as="sourcePoint" />
          </mxGeometry>
        </mxCell>
        <mxCell id="wiULPba4sbTOzCL7PzTo-37" value="&lt;span style=&quot;background-color: rgb(248 , 249 , 250)&quot;&gt;WAN&lt;/span&gt;&lt;br style=&quot;padding: 0px ; margin: 0px ; background-color: rgb(248 , 249 , 250)&quot;&gt;&lt;span style=&quot;background-color: rgb(248 , 249 , 250)&quot;&gt;&amp;nbsp;Port&lt;/span&gt;" style="text;html=1;align=left;verticalAlign=middle;resizable=0;points=[];labelBackgroundColor=#ffffff;fontColor=#000000;labelPosition=right;verticalLabelPosition=middle;" parent="kKs_Z4YsZ-Q-qFJGQyTJ-17" vertex="1" connectable="0">
          <mxGeometry x="-0.9156" y="2" relative="1" as="geometry">
            <mxPoint x="3" as="offset" />
          </mxGeometry>
        </mxCell>
        <mxCell id="kKs_Z4YsZ-Q-qFJGQyTJ-19" value="" style="edgeStyle=orthogonalEdgeStyle;shape=link;rounded=0;orthogonalLoop=1;jettySize=auto;exitX=1;exitY=0.5;exitDx=0;exitDy=0;exitPerimeter=0;entryX=0.5;entryY=0;entryDx=0;entryDy=0;entryPerimeter=0;" parent="kKs_Z4YsZ-Q-qFJGQyTJ-1" source="kKs_Z4YsZ-Q-qFJGQyTJ-21" target="kKs_Z4YsZ-Q-qFJGQyTJ-37" edge="1">
          <mxGeometry relative="1" as="geometry" />
        </mxCell>
        <mxCell id="kKs_Z4YsZ-Q-qFJGQyTJ-20" value="" style="edgeStyle=orthogonalEdgeStyle;shape=link;rounded=0;orthogonalLoop=1;jettySize=auto;entryX=0.5;entryY=1;entryDx=0;entryDy=0;entryPerimeter=0;" parent="kKs_Z4YsZ-Q-qFJGQyTJ-1" source="kKs_Z4YsZ-Q-qFJGQyTJ-8" target="kKs_Z4YsZ-Q-qFJGQyTJ-53" edge="1">
          <mxGeometry relative="1" as="geometry">
            <Array as="points">
              <mxPoint x="795" y="530" />
              <mxPoint x="795" y="1040" />
              <mxPoint x="375" y="1040" />
            </Array>
          </mxGeometry>
        </mxCell>
        <mxCell id="kKs_Z4YsZ-Q-qFJGQyTJ-21" value="" style="fontColor=#0066CC;verticalAlign=top;verticalLabelPosition=bottom;labelPosition=center;align=center;outlineConnect=0;fillColor=#CCCCCC;strokeColor=#6881B3;gradientColor=none;gradientDirection=north;strokeWidth=2;shape=mxgraph.networks.router;" parent="kKs_Z4YsZ-Q-qFJGQyTJ-1" vertex="1">
          <mxGeometry x="325.08" y="240" width="100" height="30" as="geometry" />
        </mxCell>
        <mxCell id="kKs_Z4YsZ-Q-qFJGQyTJ-22" value="" style="edgeStyle=none;shape=link;rounded=0;orthogonalLoop=1;jettySize=auto;" parent="kKs_Z4YsZ-Q-qFJGQyTJ-1" source="kKs_Z4YsZ-Q-qFJGQyTJ-6" target="kKs_Z4YsZ-Q-qFJGQyTJ-21" edge="1">
          <mxGeometry relative="1" as="geometry">
            <mxPoint x="375.08" y="420" as="sourcePoint" />
            <mxPoint x="375.08" y="340" as="targetPoint" />
          </mxGeometry>
        </mxCell>
        <mxCell id="kKs_Z4YsZ-Q-qFJGQyTJ-23" value="" style="edgeStyle=orthogonalEdgeStyle;shape=link;rounded=0;orthogonalLoop=1;jettySize=auto;exitX=0.5;exitY=1;exitDx=0;exitDy=0;exitPerimeter=0;entryX=0.5;entryY=0.07;entryDx=0;entryDy=0;entryPerimeter=0;" parent="kKs_Z4YsZ-Q-qFJGQyTJ-1" target="kKs_Z4YsZ-Q-qFJGQyTJ-29" edge="1">
          <mxGeometry relative="1" as="geometry">
            <mxPoint x="150.07999999999993" y="310" as="sourcePoint" />
          </mxGeometry>
        </mxCell>
        <mxCell id="kKs_Z4YsZ-Q-qFJGQyTJ-24" value="" style="edgeStyle=orthogonalEdgeStyle;shape=link;rounded=0;orthogonalLoop=1;jettySize=auto;exitX=0.5;exitY=1;exitDx=0;exitDy=0;exitPerimeter=0;entryX=0.5;entryY=0.07;entryDx=0;entryDy=0;entryPerimeter=0;" parent="kKs_Z4YsZ-Q-qFJGQyTJ-1" target="kKs_Z4YsZ-Q-qFJGQyTJ-28" edge="1">
          <mxGeometry relative="1" as="geometry">
            <mxPoint x="150.07999999999993" y="310" as="sourcePoint" />
          </mxGeometry>
        </mxCell>
        <mxCell id="kKs_Z4YsZ-Q-qFJGQyTJ-25" value="" style="edgeStyle=orthogonalEdgeStyle;shape=link;rounded=0;orthogonalLoop=1;jettySize=auto;exitX=0.5;exitY=1;exitDx=0;exitDy=0;exitPerimeter=0;entryX=0.5;entryY=0.07;entryDx=0;entryDy=0;entryPerimeter=0;" parent="kKs_Z4YsZ-Q-qFJGQyTJ-1" target="kKs_Z4YsZ-Q-qFJGQyTJ-27" edge="1">
          <mxGeometry relative="1" as="geometry">
            <mxPoint x="150.07999999999993" y="310" as="sourcePoint" />
          </mxGeometry>
        </mxCell>
        <mxCell id="kKs_Z4YsZ-Q-qFJGQyTJ-27" value="" style="fontColor=#0066CC;verticalAlign=top;verticalLabelPosition=bottom;labelPosition=center;align=center;outlineConnect=0;fillColor=#CCCCCC;strokeColor=#6881B3;gradientColor=none;gradientDirection=north;strokeWidth=2;shape=mxgraph.networks.pc;" parent="kKs_Z4YsZ-Q-qFJGQyTJ-1" vertex="1">
          <mxGeometry x="195.08" y="380" width="50" height="40" as="geometry" />
        </mxCell>
        <mxCell id="kKs_Z4YsZ-Q-qFJGQyTJ-28" value="" style="fontColor=#0066CC;verticalAlign=top;verticalLabelPosition=bottom;labelPosition=center;align=center;outlineConnect=0;fillColor=#CCCCCC;strokeColor=#6881B3;gradientColor=none;gradientDirection=north;strokeWidth=2;shape=mxgraph.networks.pc;" parent="kKs_Z4YsZ-Q-qFJGQyTJ-1" vertex="1">
          <mxGeometry x="125.08000000000001" y="380" width="50" height="40" as="geometry" />
        </mxCell>
        <mxCell id="kKs_Z4YsZ-Q-qFJGQyTJ-29" value="" style="fontColor=#0066CC;verticalAlign=top;verticalLabelPosition=bottom;labelPosition=center;align=center;outlineConnect=0;fillColor=#CCCCCC;strokeColor=#6881B3;gradientColor=none;gradientDirection=north;strokeWidth=2;shape=mxgraph.networks.pc;" parent="kKs_Z4YsZ-Q-qFJGQyTJ-1" vertex="1">
          <mxGeometry x="54.99999999999996" y="380" width="50" height="40" as="geometry" />
        </mxCell>
        <mxCell id="kKs_Z4YsZ-Q-qFJGQyTJ-30" value="" style="fontColor=#0066CC;verticalAlign=top;verticalLabelPosition=bottom;labelPosition=center;align=center;outlineConnect=0;fillColor=#CCCCCC;strokeColor=#6881B3;gradientColor=none;gradientDirection=north;strokeWidth=2;shape=mxgraph.networks.server;" parent="kKs_Z4YsZ-Q-qFJGQyTJ-1" vertex="1">
          <mxGeometry x="515.08" y="380" width="40" height="60" as="geometry" />
        </mxCell>
        <mxCell id="kKs_Z4YsZ-Q-qFJGQyTJ-31" value="" style="fontColor=#0066CC;verticalAlign=top;verticalLabelPosition=bottom;labelPosition=center;align=center;outlineConnect=0;fillColor=#CCCCCC;strokeColor=#6881B3;gradientColor=none;gradientDirection=north;strokeWidth=2;shape=mxgraph.networks.server;" parent="kKs_Z4YsZ-Q-qFJGQyTJ-1" vertex="1">
          <mxGeometry x="675.1600000000001" y="380" width="40" height="60" as="geometry" />
        </mxCell>
        <mxCell id="kKs_Z4YsZ-Q-qFJGQyTJ-32" value="" style="fontColor=#0066CC;verticalAlign=top;verticalLabelPosition=bottom;labelPosition=center;align=center;outlineConnect=0;fillColor=#CCCCCC;strokeColor=#6881B3;gradientColor=none;gradientDirection=north;strokeWidth=2;shape=mxgraph.networks.server;" parent="kKs_Z4YsZ-Q-qFJGQyTJ-1" vertex="1">
          <mxGeometry x="596.1600000000001" y="380" width="40" height="60" as="geometry" />
        </mxCell>
        <mxCell id="kKs_Z4YsZ-Q-qFJGQyTJ-33" value="" style="edgeStyle=orthogonalEdgeStyle;shape=link;rounded=0;orthogonalLoop=1;jettySize=auto;exitX=0.5;exitY=1;exitDx=0;exitDy=0;exitPerimeter=0;entryX=0.5;entryY=0;entryDx=0;entryDy=0;entryPerimeter=0;" parent="kKs_Z4YsZ-Q-qFJGQyTJ-1" source="kKs_Z4YsZ-Q-qFJGQyTJ-37" target="kKs_Z4YsZ-Q-qFJGQyTJ-30" edge="1">
          <mxGeometry relative="1" as="geometry" />
        </mxCell>
        <mxCell id="kKs_Z4YsZ-Q-qFJGQyTJ-34" value="" style="edgeStyle=orthogonalEdgeStyle;shape=link;rounded=0;orthogonalLoop=1;jettySize=auto;exitX=0.5;exitY=1;exitDx=0;exitDy=0;exitPerimeter=0;entryX=0.5;entryY=0;entryDx=0;entryDy=0;entryPerimeter=0;" parent="kKs_Z4YsZ-Q-qFJGQyTJ-1" source="kKs_Z4YsZ-Q-qFJGQyTJ-37" target="kKs_Z4YsZ-Q-qFJGQyTJ-32" edge="1">
          <mxGeometry relative="1" as="geometry" />
        </mxCell>
        <mxCell id="kKs_Z4YsZ-Q-qFJGQyTJ-35" value="" style="edgeStyle=orthogonalEdgeStyle;shape=link;rounded=0;orthogonalLoop=1;jettySize=auto;exitX=0.5;exitY=1;exitDx=0;exitDy=0;exitPerimeter=0;entryX=0.5;entryY=0;entryDx=0;entryDy=0;entryPerimeter=0;" parent="kKs_Z4YsZ-Q-qFJGQyTJ-1" source="kKs_Z4YsZ-Q-qFJGQyTJ-37" target="kKs_Z4YsZ-Q-qFJGQyTJ-31" edge="1">
          <mxGeometry relative="1" as="geometry">
            <Array as="points">
              <mxPoint x="615" y="345" />
              <mxPoint x="695" y="345" />
            </Array>
          </mxGeometry>
        </mxCell>
        <mxCell id="kKs_Z4YsZ-Q-qFJGQyTJ-36" value="" style="edgeStyle=orthogonalEdgeStyle;shape=link;rounded=0;orthogonalLoop=1;jettySize=auto;exitX=1;exitY=0.5;exitDx=0;exitDy=0;exitPerimeter=0;" parent="kKs_Z4YsZ-Q-qFJGQyTJ-1" source="kKs_Z4YsZ-Q-qFJGQyTJ-37" target="kKs_Z4YsZ-Q-qFJGQyTJ-69" edge="1">
          <mxGeometry relative="1" as="geometry" />
        </mxCell>
        <mxCell id="kKs_Z4YsZ-Q-qFJGQyTJ-37" value="" style="fontColor=#0066CC;verticalAlign=top;verticalLabelPosition=bottom;labelPosition=center;align=center;outlineConnect=0;fillColor=#CCCCCC;strokeColor=#6881B3;gradientColor=none;gradientDirection=north;strokeWidth=2;shape=mxgraph.networks.hub;" parent="kKs_Z4YsZ-Q-qFJGQyTJ-1" vertex="1">
          <mxGeometry x="565.08" y="280" width="100" height="30" as="geometry" />
        </mxCell>
        <mxCell id="kKs_Z4YsZ-Q-qFJGQyTJ-44" value="" style="edgeStyle=orthogonalEdgeStyle;shape=link;rounded=0;orthogonalLoop=1;jettySize=auto;exitX=0.5;exitY=1;exitDx=0;exitDy=0;entryX=0.9;entryY=1;entryDx=0;entryDy=0;entryPerimeter=0;" parent="kKs_Z4YsZ-Q-qFJGQyTJ-1" source="wiULPba4sbTOzCL7PzTo-4" target="kKs_Z4YsZ-Q-qFJGQyTJ-53" edge="1">
          <mxGeometry relative="1" as="geometry">
            <Array as="points">
              <mxPoint x="730" y="1020" />
              <mxPoint x="395" y="1020" />
              <mxPoint x="395" y="990" />
            </Array>
            <mxPoint x="715.04" y="726.8599999999997" as="sourcePoint" />
          </mxGeometry>
        </mxCell>
        <mxCell id="kKs_Z4YsZ-Q-qFJGQyTJ-50" value="ETH0 Port" style="text;align=center;verticalAlign=middle;resizable=0;points=[];autosize=1;" parent="kKs_Z4YsZ-Q-qFJGQyTJ-1" vertex="1">
          <mxGeometry x="695" y="638" width="70" height="20" as="geometry" />
        </mxCell>
        <mxCell id="kKs_Z4YsZ-Q-qFJGQyTJ-51" value="OT Network" style="text;strokeColor=none;fillColor=none;align=center;verticalAlign=middle;whiteSpace=wrap;rounded=0;fontStyle=1" parent="kKs_Z4YsZ-Q-qFJGQyTJ-1" vertex="1">
          <mxGeometry x="240.08000000000004" y="480" width="159.92" height="20" as="geometry" />
        </mxCell>
        <mxCell id="kKs_Z4YsZ-Q-qFJGQyTJ-52" value="IT Network" style="text;strokeColor=none;fillColor=none;align=center;verticalAlign=middle;whiteSpace=wrap;rounded=0;fontStyle=1" parent="kKs_Z4YsZ-Q-qFJGQyTJ-1" vertex="1">
          <mxGeometry x="240.07999999999998" y="380" width="159.92" height="20" as="geometry" />
        </mxCell>
        <mxCell id="kKs_Z4YsZ-Q-qFJGQyTJ-53" value="" style="fontColor=#0066CC;verticalAlign=top;verticalLabelPosition=bottom;labelPosition=center;align=center;outlineConnect=0;fillColor=#CCCCCC;strokeColor=#6881B3;gradientColor=none;gradientDirection=north;strokeWidth=2;shape=mxgraph.networks.hub;" parent="kKs_Z4YsZ-Q-qFJGQyTJ-1" vertex="1">
          <mxGeometry x="325.08000000000004" y="960" width="100" height="30" as="geometry" />
        </mxCell>
        <mxCell id="wiULPba4sbTOzCL7PzTo-31" style="edgeStyle=orthogonalEdgeStyle;shape=link;rounded=0;orthogonalLoop=1;jettySize=auto;html=1;" parent="kKs_Z4YsZ-Q-qFJGQyTJ-1" source="kKs_Z4YsZ-Q-qFJGQyTJ-63" target="wiULPba4sbTOzCL7PzTo-25" edge="1">
          <mxGeometry relative="1" as="geometry">
            <Array as="points">
              <mxPoint x="285" y="830" />
              <mxPoint x="303" y="830" />
            </Array>
          </mxGeometry>
        </mxCell>
        <mxCell id="wiULPba4sbTOzCL7PzTo-32" style="edgeStyle=orthogonalEdgeStyle;shape=link;rounded=0;orthogonalLoop=1;jettySize=auto;html=1;" parent="kKs_Z4YsZ-Q-qFJGQyTJ-1" source="kKs_Z4YsZ-Q-qFJGQyTJ-63" target="wiULPba4sbTOzCL7PzTo-26" edge="1">
          <mxGeometry relative="1" as="geometry">
            <Array as="points">
              <mxPoint x="285" y="830" />
              <mxPoint x="383" y="830" />
            </Array>
          </mxGeometry>
        </mxCell>
        <mxCell id="wiULPba4sbTOzCL7PzTo-33" style="edgeStyle=orthogonalEdgeStyle;shape=link;rounded=0;orthogonalLoop=1;jettySize=auto;html=1;" parent="kKs_Z4YsZ-Q-qFJGQyTJ-1" source="kKs_Z4YsZ-Q-qFJGQyTJ-63" target="wiULPba4sbTOzCL7PzTo-27" edge="1">
          <mxGeometry relative="1" as="geometry">
            <Array as="points">
              <mxPoint x="285" y="830" />
              <mxPoint x="458" y="830" />
            </Array>
          </mxGeometry>
        </mxCell>
        <mxCell id="kKs_Z4YsZ-Q-qFJGQyTJ-63" value="ETH0 Port" style="fontColor=#000000;verticalAlign=middle;verticalLabelPosition=middle;labelPosition=right;align=left;outlineConnect=0;fillColor=#CCCCCC;strokeColor=#6881B3;gradientColor=none;gradientDirection=north;strokeWidth=2;shape=mxgraph.networks.hub;" parent="kKs_Z4YsZ-Q-qFJGQyTJ-1" vertex="1">
          <mxGeometry x="235.07999999999998" y="780" width="100" height="30" as="geometry" />
        </mxCell>
        <mxCell id="kKs_Z4YsZ-Q-qFJGQyTJ-64" value="" style="edgeStyle=orthogonalEdgeStyle;shape=link;rounded=0;orthogonalLoop=1;jettySize=auto;" parent="kKs_Z4YsZ-Q-qFJGQyTJ-1" source="wiULPba4sbTOzCL7PzTo-2" edge="1">
          <mxGeometry relative="1" as="geometry">
            <mxPoint x="345" y="990" as="targetPoint" />
            <Array as="points">
              <mxPoint x="192" y="1020" />
              <mxPoint x="345" y="1020" />
            </Array>
            <mxPoint x="192.03999999999996" y="873.7199999999998" as="sourcePoint" />
          </mxGeometry>
        </mxCell>
        <mxCell id="wiULPba4sbTOzCL7PzTo-39" value="&lt;span style=&quot;background-color: rgb(248 , 249 , 250)&quot;&gt;WAN&lt;/span&gt;&lt;br style=&quot;padding: 0px ; margin: 0px ; background-color: rgb(248 , 249 , 250)&quot;&gt;&lt;span style=&quot;background-color: rgb(248 , 249 , 250)&quot;&gt;&amp;nbsp;Port&lt;/span&gt;" style="text;html=1;align=left;verticalAlign=middle;resizable=0;points=[];labelBackgroundColor=#ffffff;fontColor=#000000;labelPosition=right;verticalLabelPosition=middle;" parent="kKs_Z4YsZ-Q-qFJGQyTJ-64" vertex="1" connectable="0">
          <mxGeometry x="-0.8516" relative="1" as="geometry">
            <mxPoint x="3" as="offset" />
          </mxGeometry>
        </mxCell>
        <mxCell id="kKs_Z4YsZ-Q-qFJGQyTJ-69" value="" style="fontColor=#0066CC;verticalAlign=top;verticalLabelPosition=bottom;labelPosition=center;align=center;outlineConnect=0;fillColor=#CCCCCC;strokeColor=#6881B3;gradientColor=none;gradientDirection=north;strokeWidth=2;shape=mxgraph.networks.server;" parent="kKs_Z4YsZ-Q-qFJGQyTJ-1" vertex="1">
          <mxGeometry x="665.08" y="150" width="40" height="60" as="geometry" />
        </mxCell>
        <mxCell id="kKs_Z4YsZ-Q-qFJGQyTJ-70" value="Management system" style="text;strokeColor=none;fillColor=none;align=center;verticalAlign=middle;whiteSpace=wrap;rounded=0;fontStyle=1" parent="kKs_Z4YsZ-Q-qFJGQyTJ-1" vertex="1">
          <mxGeometry x="585.0799999999999" y="120" width="159.92" height="20" as="geometry" />
        </mxCell>
        <mxCell id="kKs_Z4YsZ-Q-qFJGQyTJ-71" value="" style="edgeStyle=none;shape=link;rounded=0;orthogonalLoop=1;jettySize=auto;" parent="kKs_Z4YsZ-Q-qFJGQyTJ-1" target="kKs_Z4YsZ-Q-qFJGQyTJ-74" edge="1">
          <mxGeometry relative="1" as="geometry">
            <mxPoint x="374" y="240" as="sourcePoint" />
            <mxPoint x="374" y="140" as="targetPoint" />
            <Array as="points" />
          </mxGeometry>
        </mxCell>
        <mxCell id="kKs_Z4YsZ-Q-qFJGQyTJ-72" value="" style="edgeStyle=none;shape=link;rounded=0;orthogonalLoop=1;jettySize=auto;" parent="kKs_Z4YsZ-Q-qFJGQyTJ-1" source="kKs_Z4YsZ-Q-qFJGQyTJ-74" edge="1">
          <mxGeometry relative="1" as="geometry">
            <mxPoint x="374.5799999999999" y="90" as="sourcePoint" />
            <mxPoint x="375" y="30" as="targetPoint" />
            <Array as="points">
              <mxPoint x="375.08" y="30" />
            </Array>
          </mxGeometry>
        </mxCell>
        <mxCell id="kKs_Z4YsZ-Q-qFJGQyTJ-73" value="" style="outlineConnect=0;fillColor=#CCCCCC;strokeColor=#6881B3;gradientColor=none;gradientDirection=north;strokeWidth=2;shape=mxgraph.networks.cloud;fontColor=#ffffff;" parent="kKs_Z4YsZ-Q-qFJGQyTJ-1" vertex="1">
          <mxGeometry x="330.08" y="4" width="90" height="50" as="geometry" />
        </mxCell>
        <mxCell id="kKs_Z4YsZ-Q-qFJGQyTJ-74" value="OpnSense" style="shape=mxgraph.cisco.hubs_and_gateways.generic_gateway;pointerEvents=1;dashed=0;fillColor=#036897;strokeColor=#ffffff;strokeWidth=2;verticalLabelPosition=bottom;verticalAlign=top;align=center;outlineConnect=0;snapToPoint=0;" parent="kKs_Z4YsZ-Q-qFJGQyTJ-1" vertex="1">
          <mxGeometry x="343" y="89" width="66" height="74" as="geometry" />
        </mxCell>
        <mxCell id="kKs_Z4YsZ-Q-qFJGQyTJ-75" value="Internet" style="text;strokeColor=none;fillColor=none;align=center;verticalAlign=middle;whiteSpace=wrap;rounded=0;fontStyle=1" parent="kKs_Z4YsZ-Q-qFJGQyTJ-1" vertex="1">
          <mxGeometry x="434.9999999999999" y="25" width="159.92" height="20" as="geometry" />
        </mxCell>
        <mxCell id="wiULPba4sbTOzCL7PzTo-0" value="&lt;span style=&quot;color: rgb(0 , 0 , 0) ; white-space: normal ; font-weight: 700&quot;&gt;Edge Device&lt;/span&gt;" style="fontColor=#0066CC;verticalAlign=middle;verticalLabelPosition=middle;labelPosition=right;align=left;html=1;outlineConnect=0;fillColor=#CCCCCC;strokeColor=#6881B3;gradientColor=none;gradientDirection=north;strokeWidth=2;shape=mxgraph.networks.desktop_pc;rounded=0;" parent="kKs_Z4YsZ-Q-qFJGQyTJ-1" vertex="1">
          <mxGeometry x="30.08" y="696.86" width="30" height="60" as="geometry" />
        </mxCell>
        <mxCell id="wiULPba4sbTOzCL7PzTo-2" value="&lt;span style=&quot;color: rgb(0 , 0 , 0) ; white-space: normal ; font-weight: 700&quot;&gt;Edge Device&lt;/span&gt;" style="fontColor=#0066CC;verticalAlign=middle;verticalLabelPosition=middle;labelPosition=right;align=left;html=1;outlineConnect=0;fillColor=#CCCCCC;strokeColor=#6881B3;gradientColor=none;gradientDirection=north;strokeWidth=2;shape=mxgraph.networks.desktop_pc;rounded=0;" parent="kKs_Z4YsZ-Q-qFJGQyTJ-1" vertex="1">
          <mxGeometry x="175.07999999999998" y="860" width="30" height="60" as="geometry" />
        </mxCell>
        <mxCell id="wiULPba4sbTOzCL7PzTo-3" value="" style="edgeStyle=orthogonalEdgeStyle;shape=link;rounded=0;orthogonalLoop=1;jettySize=auto;exitX=0.5;exitY=1;exitDx=0;exitDy=0;exitPerimeter=0;entryX=0.5;entryY=0;entryDx=0;entryDy=0;" parent="kKs_Z4YsZ-Q-qFJGQyTJ-1" source="kKs_Z4YsZ-Q-qFJGQyTJ-63" target="wiULPba4sbTOzCL7PzTo-2" edge="1">
          <mxGeometry relative="1" as="geometry">
            <Array as="points">
              <mxPoint x="285" y="830" />
              <mxPoint x="190" y="830" />
            </Array>
            <mxPoint x="192.03999999999996" y="830" as="targetPoint" />
            <mxPoint x="285.0799999999999" y="810" as="sourcePoint" />
          </mxGeometry>
        </mxCell>
        <mxCell id="wiULPba4sbTOzCL7PzTo-4" value="&lt;span style=&quot;color: rgb(0 , 0 , 0) ; white-space: normal ; font-weight: 700&quot;&gt;Edge Device&lt;/span&gt;" style="fontColor=#0066CC;verticalAlign=middle;verticalLabelPosition=middle;labelPosition=right;align=left;html=1;outlineConnect=0;fillColor=#CCCCCC;strokeColor=#6881B3;gradientColor=none;gradientDirection=north;strokeWidth=2;shape=mxgraph.networks.desktop_pc;rounded=0;" parent="kKs_Z4YsZ-Q-qFJGQyTJ-1" vertex="1">
          <mxGeometry x="715" y="690" width="30" height="60" as="geometry" />
        </mxCell>
        <mxCell id="wiULPba4sbTOzCL7PzTo-17" style="edgeStyle=orthogonalEdgeStyle;shape=link;rounded=0;orthogonalLoop=1;jettySize=auto;html=1;" parent="kKs_Z4YsZ-Q-qFJGQyTJ-1" source="wiULPba4sbTOzCL7PzTo-10" target="wiULPba4sbTOzCL7PzTo-4" edge="1">
          <mxGeometry relative="1" as="geometry" />
        </mxCell>
        <mxCell id="wiULPba4sbTOzCL7PzTo-36" value="&lt;span style=&quot;background-color: rgb(248 , 249 , 250)&quot;&gt;WAN&lt;/span&gt;&lt;br style=&quot;padding: 0px ; margin: 0px ; background-color: rgb(248 , 249 , 250)&quot;&gt;&lt;span style=&quot;background-color: rgb(248 , 249 , 250)&quot;&gt;&amp;nbsp;Port&lt;/span&gt;" style="text;html=1;align=center;verticalAlign=top;resizable=0;points=[];labelBackgroundColor=#ffffff;fontColor=#000000;labelPosition=center;verticalLabelPosition=bottom;" parent="wiULPba4sbTOzCL7PzTo-17" vertex="1" connectable="0">
          <mxGeometry x="0.1613" y="3" relative="1" as="geometry">
            <mxPoint as="offset" />
          </mxGeometry>
        </mxCell>
        <mxCell id="wiULPba4sbTOzCL7PzTo-20" style="edgeStyle=orthogonalEdgeStyle;shape=link;rounded=0;orthogonalLoop=1;jettySize=auto;html=1;" parent="kKs_Z4YsZ-Q-qFJGQyTJ-1" source="wiULPba4sbTOzCL7PzTo-10" target="wiULPba4sbTOzCL7PzTo-18" edge="1">
          <mxGeometry relative="1" as="geometry" />
        </mxCell>
        <mxCell id="wiULPba4sbTOzCL7PzTo-10" value="PLC" style="fontColor=#000000;verticalAlign=middle;verticalLabelPosition=middle;labelPosition=right;align=left;html=1;outlineConnect=0;fillColor=#CCCCCC;strokeColor=#6881B3;gradientColor=none;gradientDirection=north;strokeWidth=2;shape=mxgraph.networks.server;rounded=0;rotation=90;horizontal=0;spacing=2;spacingBottom=25;" parent="kKs_Z4YsZ-Q-qFJGQyTJ-1" vertex="1">
          <mxGeometry x="620" y="700" width="45.08" height="40" as="geometry" />
        </mxCell>
        <mxCell id="wiULPba4sbTOzCL7PzTo-21" style="edgeStyle=orthogonalEdgeStyle;shape=link;rounded=0;orthogonalLoop=1;jettySize=auto;html=1;" parent="kKs_Z4YsZ-Q-qFJGQyTJ-1" source="wiULPba4sbTOzCL7PzTo-18" target="wiULPba4sbTOzCL7PzTo-19" edge="1">
          <mxGeometry relative="1" as="geometry" />
        </mxCell>
        <mxCell id="wiULPba4sbTOzCL7PzTo-18" value="PLC" style="fontColor=#000000;verticalAlign=middle;verticalLabelPosition=middle;labelPosition=right;align=left;html=1;outlineConnect=0;fillColor=#CCCCCC;strokeColor=#6881B3;gradientColor=none;gradientDirection=north;strokeWidth=2;shape=mxgraph.networks.server;rounded=0;rotation=90;horizontal=0;spacing=2;spacingBottom=25;" parent="kKs_Z4YsZ-Q-qFJGQyTJ-1" vertex="1">
          <mxGeometry x="540" y="700" width="45.08" height="40" as="geometry" />
        </mxCell>
        <mxCell id="wiULPba4sbTOzCL7PzTo-19" value="PLC" style="fontColor=#000000;verticalAlign=middle;verticalLabelPosition=middle;labelPosition=right;align=left;html=1;outlineConnect=0;fillColor=#CCCCCC;strokeColor=#6881B3;gradientColor=none;gradientDirection=north;strokeWidth=2;shape=mxgraph.networks.server;rounded=0;rotation=90;horizontal=0;spacing=2;spacingBottom=25;" parent="kKs_Z4YsZ-Q-qFJGQyTJ-1" vertex="1">
          <mxGeometry x="460" y="700" width="45.08" height="40" as="geometry" />
        </mxCell>
        <mxCell id="wiULPba4sbTOzCL7PzTo-22" value="PLC" style="fontColor=#000000;verticalAlign=middle;verticalLabelPosition=middle;labelPosition=right;align=left;html=1;outlineConnect=0;fillColor=#CCCCCC;strokeColor=#6881B3;gradientColor=none;gradientDirection=north;strokeWidth=2;shape=mxgraph.networks.server;rounded=0;rotation=90;horizontal=0;spacing=2;spacingBottom=25;" parent="kKs_Z4YsZ-Q-qFJGQyTJ-1" vertex="1">
          <mxGeometry x="117" y="681.86" width="45.08" height="40" as="geometry" />
        </mxCell>
        <mxCell id="wiULPba4sbTOzCL7PzTo-23" value="PLC" style="fontColor=#000000;verticalAlign=middle;verticalLabelPosition=middle;labelPosition=right;align=left;html=1;outlineConnect=0;fillColor=#CCCCCC;strokeColor=#6881B3;gradientColor=none;gradientDirection=north;strokeWidth=2;shape=mxgraph.networks.server;rounded=0;rotation=90;horizontal=0;spacing=2;spacingBottom=25;" parent="kKs_Z4YsZ-Q-qFJGQyTJ-1" vertex="1">
          <mxGeometry x="197.54000000000002" y="681.86" width="45.08" height="40" as="geometry" />
        </mxCell>
        <mxCell id="wiULPba4sbTOzCL7PzTo-24" value="PLC" style="fontColor=#000000;verticalAlign=middle;verticalLabelPosition=middle;labelPosition=right;align=left;html=1;outlineConnect=0;fillColor=#CCCCCC;strokeColor=#6881B3;gradientColor=none;gradientDirection=north;strokeWidth=2;shape=mxgraph.networks.server;rounded=0;rotation=90;horizontal=0;spacing=2;spacingBottom=25;" parent="kKs_Z4YsZ-Q-qFJGQyTJ-1" vertex="1">
          <mxGeometry x="280" y="681.86" width="45.08" height="40" as="geometry" />
        </mxCell>
        <mxCell id="wiULPba4sbTOzCL7PzTo-25" value="PLC" style="fontColor=#000000;verticalAlign=middle;verticalLabelPosition=middle;labelPosition=right;align=left;html=1;outlineConnect=0;fillColor=#CCCCCC;strokeColor=#6881B3;gradientColor=none;gradientDirection=north;strokeWidth=2;shape=mxgraph.networks.server;rounded=0;rotation=90;horizontal=0;spacing=2;spacingBottom=25;" parent="kKs_Z4YsZ-Q-qFJGQyTJ-1" vertex="1">
          <mxGeometry x="280" y="880" width="45.08" height="40" as="geometry" />
        </mxCell>
        <mxCell id="wiULPba4sbTOzCL7PzTo-26" value="PLC" style="fontColor=#000000;verticalAlign=middle;verticalLabelPosition=middle;labelPosition=right;align=left;html=1;outlineConnect=0;fillColor=#CCCCCC;strokeColor=#6881B3;gradientColor=none;gradientDirection=north;strokeWidth=2;shape=mxgraph.networks.server;rounded=0;rotation=90;horizontal=0;spacing=2;spacingBottom=25;" parent="kKs_Z4YsZ-Q-qFJGQyTJ-1" vertex="1">
          <mxGeometry x="360" y="880" width="45.08" height="40" as="geometry" />
        </mxCell>
        <mxCell id="wiULPba4sbTOzCL7PzTo-27" value="PLC" style="fontColor=#000000;verticalAlign=middle;verticalLabelPosition=middle;labelPosition=right;align=left;html=1;outlineConnect=0;fillColor=#CCCCCC;strokeColor=#6881B3;gradientColor=none;gradientDirection=north;strokeWidth=2;shape=mxgraph.networks.server;rounded=0;rotation=90;horizontal=0;spacing=2;spacingBottom=25;" parent="kKs_Z4YsZ-Q-qFJGQyTJ-1" vertex="1">
          <mxGeometry x="435" y="880" width="45.08" height="40" as="geometry" />
        </mxCell>
        <mxCell id="0lin-rULBZm15URzwqUY-0" value="&lt;div&gt;Ubiquiti UniFi AP AC Pro&lt;/div&gt;&lt;div&gt;&lt;br&gt;&lt;/div&gt;" style="points=[[0.03,0.36,0],[0.18,0,0],[0.5,0.34,0],[0.82,0,0],[0.97,0.36,0],[1,0.67,0],[0.975,0.975,0],[0.5,1,0],[0.025,0.975,0],[0,0.67,0]];verticalLabelPosition=bottom;sketch=0;html=1;verticalAlign=top;aspect=fixed;align=center;pointerEvents=1;shape=mxgraph.cisco19.wireless_access_point;fillColor=#005073;strokeColor=none;" vertex="1" parent="kKs_Z4YsZ-Q-qFJGQyTJ-1">
          <mxGeometry x="125.08" y="221" width="50" height="50" as="geometry" />
        </mxCell>
        <mxCell id="0lin-rULBZm15URzwqUY-3" value="" style="endArrow=none;html=1;rounded=0;exitX=1;exitY=0.67;exitDx=0;exitDy=0;exitPerimeter=0;strokeWidth=2;fillColor=#f8cecc;strokeColor=#FF0000;" edge="1" parent="kKs_Z4YsZ-Q-qFJGQyTJ-1" source="0lin-rULBZm15URzwqUY-0" target="kKs_Z4YsZ-Q-qFJGQyTJ-21">
          <mxGeometry width="50" height="50" relative="1" as="geometry">
            <mxPoint x="240" y="230" as="sourcePoint" />
            <mxPoint x="290" y="180" as="targetPoint" />
          </mxGeometry>
        </mxCell>
        <mxCell id="0lin-rULBZm15URzwqUY-4" value="" style="endArrow=none;html=1;rounded=0;strokeWidth=2;fillColor=#f8cecc;strokeColor=#0000FF;exitX=0.984;exitY=0.752;exitDx=0;exitDy=0;exitPerimeter=0;snapToPoint=1;" edge="1" parent="kKs_Z4YsZ-Q-qFJGQyTJ-1">
          <mxGeometry width="50" height="50" relative="1" as="geometry">
            <mxPoint x="174.15999999999997" y="260.13" as="sourcePoint" />
            <mxPoint x="325.08000000000004" y="259.8433333333333" as="targetPoint" />
          </mxGeometry>
        </mxCell>
        <mxCell id="0lin-rULBZm15URzwqUY-5" value="" style="endArrow=none;html=1;rounded=0;strokeWidth=2;fillColor=#d5e8d4;strokeColor=#00FF00;exitX=0.984;exitY=0.752;exitDx=0;exitDy=0;exitPerimeter=0;snapToPoint=1;" edge="1" parent="kKs_Z4YsZ-Q-qFJGQyTJ-1">
          <mxGeometry width="50" height="50" relative="1" as="geometry">
            <mxPoint x="173.88" y="250.34" as="sourcePoint" />
            <mxPoint x="325.08000000000004" y="249.65333333333334" as="targetPoint" />
          </mxGeometry>
        </mxCell>
      </root>
    </mxGraphModel>
  </diagram>
</mxfile>
